<svg xmlns="http://www.w3.org/2000/svg" width="17.83" height="17.83" viewBox="0 0 17.83 17.83">
  <g id="Icon_feather-headphones" data-name="Icon feather-headphones" transform="translate(0.75 0.75)">
    <path id="Path_11" data-name="Path 11" d="M4.5,18.109V12.665a8.165,8.165,0,1,1,16.33,0v5.443" transform="translate(-4.5 -4.5)" fill="none" stroke="#07dbd8" stroke-linecap="round" stroke-linejoin="round" stroke-width="1.5"/>
    <path id="Path_12" data-name="Path 12" d="M20.83,25.536a1.814,1.814,0,0,1-1.814,1.814h-.907a1.814,1.814,0,0,1-1.814-1.814V22.814A1.814,1.814,0,0,1,18.109,21H20.83Zm-16.33,0a1.814,1.814,0,0,0,1.814,1.814h.907a1.814,1.814,0,0,0,1.814-1.814V22.814A1.814,1.814,0,0,0,7.222,21H4.5Z" transform="translate(-4.5 -11.02)" fill="none" stroke="#07dbd8" stroke-linecap="round" stroke-linejoin="round" stroke-width="1.5"/>
  </g>
</svg>
